<?xml version="1.0" standalone="no"?>
<!DOCTYPE svg PUBLIC "-//W3C//DTD SVG 20010904//EN"
 "http://www.w3.org/TR/2001/REC-SVG-20010904/DTD/svg10.dtd">
<svg version="1.0" xmlns="http://www.w3.org/2000/svg"
 width="143.000000pt" height="191.000000pt" viewBox="0 0 143.000000 191.000000"
 preserveAspectRatio="xMidYMid meet">

<g transform="translate(0.000000,191.000000) scale(0.100000,-0.100000)"
fill="#f1580c" stroke="none">
<path d="M486 1672 c-126 -53 -229 -101 -229 -107 0 -5 39 -32 86 -60 82 -47
87 -52 87 -84 0 -18 -14 -75 -32 -125 -28 -81 -32 -108 -39 -256 -11 -219 -36
-310 -109 -394 l-30 -34 40 5 c22 3 40 3 40 0 0 -3 -24 -18 -53 -35 -110 -62
-188 -180 -206 -309 -16 -116 8 -186 80 -228 33 -19 52 -20 599 -20 547 0 566
1 599 20 48 28 70 62 80 122 17 112 -21 237 -101 328 -43 49 -118 102 -173
124 -26 10 -23 11 30 6 l59 -6 -26 28 c-68 73 -97 183 -108 403 -8 173 -20
226 -66 307 -41 71 -36 81 73 143 53 30 96 60 96 65 -1 7 -462 209 -467 204
-1 0 -104 -44 -230 -97z m444 -483 c9 -33 8 -45 -4 -64 -15 -23 -15 -23 44
-30 l59 -7 -5 -46 c-34 -283 -229 -447 -413 -347 -86 47 -144 130 -176 252
-23 87 -22 90 32 98 109 16 294 93 397 165 23 15 44 26 48 24 4 -3 12 -23 18
-45z m-315 -548 c44 -23 182 -22 218 2 15 9 39 25 53 34 l27 17 -17 -31 -16
-32 55 6 c45 5 55 3 55 -9 0 -25 -77 -87 -123 -100 -39 -10 -48 -19 -92 -90
-27 -43 -52 -78 -56 -78 -3 0 -28 36 -55 79 -40 65 -55 80 -80 85 -35 7 -111
54 -118 73 -7 16 31 17 70 3 15 -6 29 -9 31 -6 2 2 -5 22 -16 45 -27 53 -26
57 7 35 15 -10 41 -25 57 -33z"/>
<path d="M276 1501 c-4 -6 -4 -25 -1 -43 3 -18 2 -88 -4 -156 -8 -97 -7 -130
3 -160 l14 -37 12 30 c9 23 10 66 3 175 -6 92 -6 150 1 158 6 9 4 18 -6 28
-11 11 -18 12 -22 5z"/>
</g>
</svg>
